<mxfile host="app.diagrams.net" modified="2024-03-19T22:49:23.571Z" agent="Mozilla/5.0 (Windows NT 10.0; Win64; x64; rv:123.0) Gecko/20100101 Firefox/123.0" etag="k5renGKh3UaViR0fRsCm" version="24.0.7" type="device">
  <diagram name="Page-1" id="2cc2dc42-3aac-f2a9-1cec-7a8b7cbee084">
    <mxGraphModel dx="2011" dy="1154" grid="1" gridSize="10" guides="1" tooltips="1" connect="1" arrows="1" fold="1" page="1" pageScale="1" pageWidth="1100" pageHeight="850" background="none" math="0" shadow="0">
      <root>
        <mxCell id="0" />
        <mxCell id="1" parent="0" />
        <mxCell id="MQ3nfaRgDuZ902bFgh4B-7" style="edgeStyle=orthogonalEdgeStyle;rounded=0;orthogonalLoop=1;jettySize=auto;html=1;" edge="1" parent="1" source="MQ3nfaRgDuZ902bFgh4B-1" target="MQ3nfaRgDuZ902bFgh4B-4">
          <mxGeometry relative="1" as="geometry" />
        </mxCell>
        <mxCell id="MQ3nfaRgDuZ902bFgh4B-1" value="Step 1" style="strokeWidth=1;shadow=0;dashed=0;align=center;html=1;shape=mxgraph.mockup.containers.window;align=left;verticalAlign=top;spacingLeft=8;strokeColor2=#008cff;strokeColor3=#c4c4c4;fontColor=#666666;mainText=;fontSize=17;labelBackgroundColor=none;whiteSpace=wrap;" vertex="1" parent="1">
          <mxGeometry x="60" y="50" width="460" height="560" as="geometry" />
        </mxCell>
        <mxCell id="MQ3nfaRgDuZ902bFgh4B-2" value="&lt;table border=&quot;0&quot; cellpadding=&quot;0&quot; cellspacing=&quot;0&quot; width=&quot;100%&quot; height=&quot;100%&quot; style=&quot;font-size:1em;&quot;&gt;&lt;tbody&gt;&lt;tr height=&quot;0%&quot;&gt;&lt;td width=&quot;25%&quot;&gt;&lt;span style=&quot;white-space: pre;&quot;&gt;&#x9;&lt;/span&gt;&lt;span style=&quot;white-space: pre;&quot;&gt;&#x9;&lt;/span&gt;&amp;nbsp;&amp;nbsp;&amp;nbsp;&amp;nbsp; Progress Bar&lt;br&gt;&lt;/td&gt;&lt;td width=&quot;25%&quot;&gt;&lt;br&gt;&lt;/td&gt;&lt;td width=&quot;25%&quot; style=&quot;color:#008cff;&quot;&gt;&lt;br&gt;&lt;/td&gt;&lt;td width=&quot;25%&quot;&gt;&lt;br&gt;&lt;/td&gt;&lt;/tr&gt;&lt;tr height=&quot;100%&quot;&gt;&lt;td&gt;&lt;/td&gt;&lt;/tr&gt;&lt;/tbody&gt;&lt;/table&gt;" style="strokeWidth=1;shadow=0;dashed=0;align=center;html=1;shape=mxgraph.mockup.navigation.stepBar;strokeColor=#c4c4c4;textColor=#666666;textColor2=#008cff;mainText=,,+,;textSize=17;fillColor=#666666;overflow=fill;fontSize=17;fontColor=#666666;" vertex="1" parent="1">
          <mxGeometry x="140" y="100" width="300" height="50" as="geometry" />
        </mxCell>
        <mxCell id="MQ3nfaRgDuZ902bFgh4B-9" style="edgeStyle=orthogonalEdgeStyle;rounded=0;orthogonalLoop=1;jettySize=auto;html=1;" edge="1" parent="1" source="MQ3nfaRgDuZ902bFgh4B-3" target="MQ3nfaRgDuZ902bFgh4B-5">
          <mxGeometry relative="1" as="geometry" />
        </mxCell>
        <mxCell id="MQ3nfaRgDuZ902bFgh4B-3" value="Step 3" style="strokeWidth=1;shadow=0;dashed=0;align=center;html=1;shape=mxgraph.mockup.containers.window;align=left;verticalAlign=top;spacingLeft=8;strokeColor2=#008cff;strokeColor3=#c4c4c4;fontColor=#666666;mainText=;fontSize=17;labelBackgroundColor=none;whiteSpace=wrap;" vertex="1" parent="1">
          <mxGeometry x="540" y="930" width="510" height="560" as="geometry" />
        </mxCell>
        <mxCell id="MQ3nfaRgDuZ902bFgh4B-4" value="Step 2" style="strokeWidth=1;shadow=0;dashed=0;align=center;html=1;shape=mxgraph.mockup.containers.window;align=left;verticalAlign=top;spacingLeft=8;strokeColor2=#008cff;strokeColor3=#c4c4c4;fontColor=#666666;mainText=;fontSize=17;labelBackgroundColor=none;whiteSpace=wrap;" vertex="1" parent="1">
          <mxGeometry x="560" y="50" width="490" height="560" as="geometry" />
        </mxCell>
        <mxCell id="MQ3nfaRgDuZ902bFgh4B-5" value="&lt;div&gt;Step 4&lt;/div&gt;&lt;div&gt;&lt;br&gt;&lt;/div&gt;" style="strokeWidth=1;shadow=0;dashed=0;align=center;html=1;shape=mxgraph.mockup.containers.window;align=left;verticalAlign=top;spacingLeft=8;strokeColor2=#008cff;strokeColor3=#c4c4c4;fontColor=#666666;mainText=;fontSize=17;labelBackgroundColor=none;whiteSpace=wrap;" vertex="1" parent="1">
          <mxGeometry x="30" y="930" width="490" height="560" as="geometry" />
        </mxCell>
        <mxCell id="MQ3nfaRgDuZ902bFgh4B-8" style="edgeStyle=orthogonalEdgeStyle;rounded=0;orthogonalLoop=1;jettySize=auto;html=1;entryX=0.497;entryY=-0.005;entryDx=0;entryDy=0;entryPerimeter=0;" edge="1" parent="1" source="MQ3nfaRgDuZ902bFgh4B-4" target="MQ3nfaRgDuZ902bFgh4B-3">
          <mxGeometry relative="1" as="geometry" />
        </mxCell>
        <mxCell id="MQ3nfaRgDuZ902bFgh4B-13" value="&lt;table border=&quot;0&quot; cellpadding=&quot;0&quot; cellspacing=&quot;0&quot; width=&quot;100%&quot; height=&quot;100%&quot; style=&quot;font-size:1em;&quot;&gt;&lt;tbody&gt;&lt;tr height=&quot;0%&quot;&gt;&lt;td width=&quot;25%&quot;&gt;&lt;span style=&quot;white-space: pre;&quot;&gt;&#x9;&lt;/span&gt;&lt;span style=&quot;white-space: pre;&quot;&gt;&#x9;&lt;/span&gt;&amp;nbsp;&amp;nbsp;&amp;nbsp;&amp;nbsp; Progress Bar&lt;br&gt;&lt;/td&gt;&lt;td width=&quot;25%&quot;&gt;&lt;br&gt;&lt;/td&gt;&lt;td width=&quot;25%&quot; style=&quot;color:#008cff;&quot;&gt;&lt;br&gt;&lt;/td&gt;&lt;td width=&quot;25%&quot;&gt;&lt;br&gt;&lt;/td&gt;&lt;/tr&gt;&lt;tr height=&quot;100%&quot;&gt;&lt;td&gt;&lt;/td&gt;&lt;/tr&gt;&lt;/tbody&gt;&lt;/table&gt;" style="strokeWidth=1;shadow=0;dashed=0;align=center;html=1;shape=mxgraph.mockup.navigation.stepBar;strokeColor=#c4c4c4;textColor=#666666;textColor2=#008cff;mainText=,,+,;textSize=17;fillColor=#666666;overflow=fill;fontSize=17;fontColor=#666666;" vertex="1" parent="1">
          <mxGeometry x="125" y="1000" width="300" height="50" as="geometry" />
        </mxCell>
        <mxCell id="MQ3nfaRgDuZ902bFgh4B-14" value="&lt;table border=&quot;0&quot; cellpadding=&quot;0&quot; cellspacing=&quot;0&quot; width=&quot;100%&quot; height=&quot;100%&quot; style=&quot;font-size:1em;&quot;&gt;&lt;tbody&gt;&lt;tr height=&quot;0%&quot;&gt;&lt;td width=&quot;25%&quot;&gt;&lt;span style=&quot;white-space: pre;&quot;&gt;&#x9;&lt;/span&gt;&lt;span style=&quot;white-space: pre;&quot;&gt;&#x9;&lt;/span&gt;&amp;nbsp;&amp;nbsp;&amp;nbsp;&amp;nbsp; Progress Bar&lt;br&gt;&lt;/td&gt;&lt;td width=&quot;25%&quot;&gt;&lt;br&gt;&lt;/td&gt;&lt;td width=&quot;25%&quot; style=&quot;color:#008cff;&quot;&gt;&lt;br&gt;&lt;/td&gt;&lt;td width=&quot;25%&quot;&gt;&lt;br&gt;&lt;/td&gt;&lt;/tr&gt;&lt;tr height=&quot;100%&quot;&gt;&lt;td&gt;&lt;/td&gt;&lt;/tr&gt;&lt;/tbody&gt;&lt;/table&gt;" style="strokeWidth=1;shadow=0;dashed=0;align=center;html=1;shape=mxgraph.mockup.navigation.stepBar;strokeColor=#c4c4c4;textColor=#666666;textColor2=#008cff;mainText=,,+,;textSize=17;fillColor=#666666;overflow=fill;fontSize=17;fontColor=#666666;" vertex="1" parent="1">
          <mxGeometry x="655" y="1000" width="300" height="50" as="geometry" />
        </mxCell>
        <mxCell id="MQ3nfaRgDuZ902bFgh4B-15" value="&lt;table border=&quot;0&quot; cellpadding=&quot;0&quot; cellspacing=&quot;0&quot; width=&quot;100%&quot; height=&quot;100%&quot; style=&quot;font-size:1em;&quot;&gt;&lt;tbody&gt;&lt;tr height=&quot;0%&quot;&gt;&lt;td width=&quot;25%&quot;&gt;&lt;span style=&quot;white-space: pre;&quot;&gt;&#x9;&lt;/span&gt;&lt;span style=&quot;white-space: pre;&quot;&gt;&#x9;&lt;/span&gt;&amp;nbsp;&amp;nbsp;&amp;nbsp;&amp;nbsp; Progress Bar&lt;br&gt;&lt;/td&gt;&lt;td width=&quot;25%&quot;&gt;&lt;br&gt;&lt;/td&gt;&lt;td width=&quot;25%&quot; style=&quot;color:#008cff;&quot;&gt;&lt;br&gt;&lt;/td&gt;&lt;td width=&quot;25%&quot;&gt;&lt;br&gt;&lt;/td&gt;&lt;/tr&gt;&lt;tr height=&quot;100%&quot;&gt;&lt;td&gt;&lt;/td&gt;&lt;/tr&gt;&lt;/tbody&gt;&lt;/table&gt;" style="strokeWidth=1;shadow=0;dashed=0;align=center;html=1;shape=mxgraph.mockup.navigation.stepBar;strokeColor=#c4c4c4;textColor=#666666;textColor2=#008cff;mainText=,,+,;textSize=17;fillColor=#666666;overflow=fill;fontSize=17;fontColor=#666666;" vertex="1" parent="1">
          <mxGeometry x="655" y="100" width="300" height="50" as="geometry" />
        </mxCell>
        <mxCell id="MQ3nfaRgDuZ902bFgh4B-16" value="Next" style="strokeWidth=1;shadow=0;dashed=0;align=center;html=1;shape=mxgraph.mockup.buttons.button;strokeColor=#666666;fontColor=#ffffff;mainText=;buttonStyle=round;fontSize=17;fontStyle=1;fillColor=#008cff;whiteSpace=wrap;" vertex="1" parent="1">
          <mxGeometry x="370" y="540" width="100" height="25" as="geometry" />
        </mxCell>
        <mxCell id="MQ3nfaRgDuZ902bFgh4B-17" value="Back" style="strokeWidth=1;shadow=0;dashed=0;align=center;html=1;shape=mxgraph.mockup.buttons.button;strokeColor=#666666;fontColor=#ffffff;mainText=;buttonStyle=round;fontSize=17;fontStyle=1;fillColor=#008cff;whiteSpace=wrap;" vertex="1" parent="1">
          <mxGeometry x="110" y="540" width="100" height="25" as="geometry" />
        </mxCell>
        <mxCell id="MQ3nfaRgDuZ902bFgh4B-18" value="Next" style="strokeWidth=1;shadow=0;dashed=0;align=center;html=1;shape=mxgraph.mockup.buttons.button;strokeColor=#666666;fontColor=#ffffff;mainText=;buttonStyle=round;fontSize=17;fontStyle=1;fillColor=#008cff;whiteSpace=wrap;" vertex="1" parent="1">
          <mxGeometry x="910" y="1410" width="100" height="25" as="geometry" />
        </mxCell>
        <mxCell id="MQ3nfaRgDuZ902bFgh4B-19" value="Back" style="strokeWidth=1;shadow=0;dashed=0;align=center;html=1;shape=mxgraph.mockup.buttons.button;strokeColor=#666666;fontColor=#ffffff;mainText=;buttonStyle=round;fontSize=17;fontStyle=1;fillColor=#008cff;whiteSpace=wrap;" vertex="1" parent="1">
          <mxGeometry x="600" y="1410" width="100" height="25" as="geometry" />
        </mxCell>
        <mxCell id="MQ3nfaRgDuZ902bFgh4B-20" value="Next" style="strokeWidth=1;shadow=0;dashed=0;align=center;html=1;shape=mxgraph.mockup.buttons.button;strokeColor=#666666;fontColor=#ffffff;mainText=;buttonStyle=round;fontSize=17;fontStyle=1;fillColor=#008cff;whiteSpace=wrap;" vertex="1" parent="1">
          <mxGeometry x="350" y="1420" width="100" height="25" as="geometry" />
        </mxCell>
        <mxCell id="MQ3nfaRgDuZ902bFgh4B-21" value="Back" style="strokeWidth=1;shadow=0;dashed=0;align=center;html=1;shape=mxgraph.mockup.buttons.button;strokeColor=#666666;fontColor=#ffffff;mainText=;buttonStyle=round;fontSize=17;fontStyle=1;fillColor=#008cff;whiteSpace=wrap;" vertex="1" parent="1">
          <mxGeometry x="70" y="1420" width="100" height="25" as="geometry" />
        </mxCell>
        <mxCell id="MQ3nfaRgDuZ902bFgh4B-22" value="Next" style="strokeWidth=1;shadow=0;dashed=0;align=center;html=1;shape=mxgraph.mockup.buttons.button;strokeColor=#666666;fontColor=#ffffff;mainText=;buttonStyle=round;fontSize=17;fontStyle=1;fillColor=#008cff;whiteSpace=wrap;" vertex="1" parent="1">
          <mxGeometry x="910" y="540" width="100" height="25" as="geometry" />
        </mxCell>
        <mxCell id="MQ3nfaRgDuZ902bFgh4B-23" value="Back" style="strokeWidth=1;shadow=0;dashed=0;align=center;html=1;shape=mxgraph.mockup.buttons.button;strokeColor=#666666;fontColor=#ffffff;mainText=;buttonStyle=round;fontSize=17;fontStyle=1;fillColor=#008cff;whiteSpace=wrap;" vertex="1" parent="1">
          <mxGeometry x="600" y="540" width="100" height="25" as="geometry" />
        </mxCell>
        <mxCell id="MQ3nfaRgDuZ902bFgh4B-24" value="" style="strokeWidth=1;shadow=0;dashed=0;align=center;html=1;shape=mxgraph.mockup.forms.rrect;rSize=0;strokeColor=#999999;fillColor=#ffffff;recursiveResize=0;" vertex="1" parent="1">
          <mxGeometry x="205" y="1165" width="140" height="140" as="geometry" />
        </mxCell>
        <mxCell id="MQ3nfaRgDuZ902bFgh4B-25" value="Option 1" style="strokeWidth=1;shadow=0;dashed=0;align=center;html=1;shape=mxgraph.mockup.forms.rrect;rSize=0;fillColor=#eeeeee;strokeColor=#999999;gradientColor=#cccccc;align=left;spacingLeft=4;fontSize=17;fontColor=#666666;labelPosition=right;" vertex="1" parent="MQ3nfaRgDuZ902bFgh4B-24">
          <mxGeometry x="8" y="7.5" width="15" height="15" as="geometry" />
        </mxCell>
        <mxCell id="MQ3nfaRgDuZ902bFgh4B-26" value="Option 2" style="strokeWidth=1;shadow=0;dashed=0;align=center;html=1;shape=mxgraph.mockup.forms.rrect;rSize=0;fillColor=#eeeeee;strokeColor=#999999;gradientColor=#cccccc;align=left;spacingLeft=4;fontSize=17;fontColor=#666666;labelPosition=right;" vertex="1" parent="MQ3nfaRgDuZ902bFgh4B-24">
          <mxGeometry x="8" y="37.5" width="15" height="15" as="geometry" />
        </mxCell>
        <mxCell id="MQ3nfaRgDuZ902bFgh4B-27" value="Option 3" style="strokeWidth=1;shadow=0;dashed=0;align=center;html=1;shape=mxgraph.mockup.forms.checkbox;rSize=0;resizable=0;fillColor=#aaaaaa;strokeColor=#444444;gradientColor=#666666;align=left;spacingLeft=4;fontSize=17;fontColor=#008cff;labelPosition=right;" vertex="1" parent="MQ3nfaRgDuZ902bFgh4B-24">
          <mxGeometry x="8" y="67.5" width="15" height="15" as="geometry" />
        </mxCell>
        <mxCell id="MQ3nfaRgDuZ902bFgh4B-28" value="Option 4" style="strokeWidth=1;shadow=0;dashed=0;align=center;html=1;shape=mxgraph.mockup.forms.rrect;rSize=0;fillColor=#eeeeee;strokeColor=#999999;gradientColor=#cccccc;align=left;spacingLeft=4;fontSize=17;fontColor=#666666;labelPosition=right;" vertex="1" parent="MQ3nfaRgDuZ902bFgh4B-24">
          <mxGeometry x="8" y="97.5" width="15" height="15" as="geometry" />
        </mxCell>
        <mxCell id="MQ3nfaRgDuZ902bFgh4B-29" value="" style="strokeWidth=1;shadow=0;dashed=0;align=center;html=1;shape=mxgraph.mockup.forms.rrect;rSize=5;strokeColor=#999999;fillColor=#ffffff;" vertex="1" parent="1">
          <mxGeometry x="145" y="300" width="120" height="120" as="geometry" />
        </mxCell>
        <mxCell id="MQ3nfaRgDuZ902bFgh4B-30" value="October 2014" style="strokeWidth=1;shadow=0;dashed=0;align=center;html=1;shape=mxgraph.mockup.forms.anchor;fontColor=#999999;" vertex="1" parent="MQ3nfaRgDuZ902bFgh4B-29">
          <mxGeometry x="22.5" y="5.485714285714286" width="75" height="13.714285714285715" as="geometry" />
        </mxCell>
        <mxCell id="MQ3nfaRgDuZ902bFgh4B-31" value="&lt;" style="strokeWidth=1;shadow=0;dashed=0;align=center;html=1;shape=mxgraph.mockup.forms.rrect;rSize=4;strokeColor=#999999;fontColor=#008cff;fontSize=19;fontStyle=1;" vertex="1" parent="MQ3nfaRgDuZ902bFgh4B-29">
          <mxGeometry x="6" y="5.485714285714286" width="18.75" height="13.714285714285715" as="geometry" />
        </mxCell>
        <mxCell id="MQ3nfaRgDuZ902bFgh4B-32" value="&gt;" style="strokeWidth=1;shadow=0;dashed=0;align=center;html=1;shape=mxgraph.mockup.forms.rrect;rSize=4;strokeColor=#999999;fontColor=#008cff;fontSize=19;fontStyle=1;" vertex="1" parent="MQ3nfaRgDuZ902bFgh4B-29">
          <mxGeometry x="95.25" y="5.485714285714286" width="18.75" height="13.714285714285715" as="geometry" />
        </mxCell>
        <mxCell id="MQ3nfaRgDuZ902bFgh4B-33" value="Mo" style="strokeWidth=1;shadow=0;dashed=0;align=center;html=1;shape=mxgraph.mockup.forms.anchor;fontColor=#999999;" vertex="1" parent="MQ3nfaRgDuZ902bFgh4B-29">
          <mxGeometry x="7.5" y="19.2" width="15" height="13.714285714285715" as="geometry" />
        </mxCell>
        <mxCell id="MQ3nfaRgDuZ902bFgh4B-34" value="Tu" style="strokeWidth=1;shadow=0;dashed=0;align=center;html=1;shape=mxgraph.mockup.forms.anchor;fontColor=#999999;" vertex="1" parent="MQ3nfaRgDuZ902bFgh4B-29">
          <mxGeometry x="22.5" y="19.2" width="15" height="13.714285714285715" as="geometry" />
        </mxCell>
        <mxCell id="MQ3nfaRgDuZ902bFgh4B-35" value="We" style="strokeWidth=1;shadow=0;dashed=0;align=center;html=1;shape=mxgraph.mockup.forms.anchor;fontColor=#999999;" vertex="1" parent="MQ3nfaRgDuZ902bFgh4B-29">
          <mxGeometry x="37.5" y="19.2" width="15" height="13.714285714285715" as="geometry" />
        </mxCell>
        <mxCell id="MQ3nfaRgDuZ902bFgh4B-36" value="Th" style="strokeWidth=1;shadow=0;dashed=0;align=center;html=1;shape=mxgraph.mockup.forms.anchor;fontColor=#999999;" vertex="1" parent="MQ3nfaRgDuZ902bFgh4B-29">
          <mxGeometry x="52.5" y="19.2" width="15" height="13.714285714285715" as="geometry" />
        </mxCell>
        <mxCell id="MQ3nfaRgDuZ902bFgh4B-37" value="Fr" style="strokeWidth=1;shadow=0;dashed=0;align=center;html=1;shape=mxgraph.mockup.forms.anchor;fontColor=#999999;" vertex="1" parent="MQ3nfaRgDuZ902bFgh4B-29">
          <mxGeometry x="67.5" y="19.2" width="15" height="13.714285714285715" as="geometry" />
        </mxCell>
        <mxCell id="MQ3nfaRgDuZ902bFgh4B-38" value="Sa" style="strokeWidth=1;shadow=0;dashed=0;align=center;html=1;shape=mxgraph.mockup.forms.anchor;fontColor=#999999;" vertex="1" parent="MQ3nfaRgDuZ902bFgh4B-29">
          <mxGeometry x="82.5" y="19.2" width="15" height="13.714285714285715" as="geometry" />
        </mxCell>
        <mxCell id="MQ3nfaRgDuZ902bFgh4B-39" value="Su" style="strokeWidth=1;shadow=0;dashed=0;align=center;html=1;shape=mxgraph.mockup.forms.anchor;fontColor=#999999;" vertex="1" parent="MQ3nfaRgDuZ902bFgh4B-29">
          <mxGeometry x="97.5" y="19.2" width="15" height="13.714285714285715" as="geometry" />
        </mxCell>
        <mxCell id="MQ3nfaRgDuZ902bFgh4B-40" value="1" style="strokeWidth=1;shadow=0;dashed=0;align=center;html=1;shape=mxgraph.mockup.forms.rrect;rSize=0;strokeColor=#999999;fontColor=#999999;" vertex="1" parent="MQ3nfaRgDuZ902bFgh4B-29">
          <mxGeometry x="7.5" y="32.91428571428571" width="15" height="13.714285714285715" as="geometry" />
        </mxCell>
        <mxCell id="MQ3nfaRgDuZ902bFgh4B-41" value="2" style="strokeWidth=1;shadow=0;dashed=0;align=center;html=1;shape=mxgraph.mockup.forms.rrect;rSize=0;strokeColor=#999999;fontColor=#999999;" vertex="1" parent="MQ3nfaRgDuZ902bFgh4B-29">
          <mxGeometry x="22.5" y="32.91428571428571" width="15" height="13.714285714285715" as="geometry" />
        </mxCell>
        <mxCell id="MQ3nfaRgDuZ902bFgh4B-42" value="3" style="strokeWidth=1;shadow=0;dashed=0;align=center;html=1;shape=mxgraph.mockup.forms.rrect;rSize=0;strokeColor=#999999;fontColor=#999999;" vertex="1" parent="MQ3nfaRgDuZ902bFgh4B-29">
          <mxGeometry x="37.5" y="32.91428571428571" width="15" height="13.714285714285715" as="geometry" />
        </mxCell>
        <mxCell id="MQ3nfaRgDuZ902bFgh4B-43" value="4" style="strokeWidth=1;shadow=0;dashed=0;align=center;html=1;shape=mxgraph.mockup.forms.rrect;rSize=0;strokeColor=#999999;fontColor=#999999;" vertex="1" parent="MQ3nfaRgDuZ902bFgh4B-29">
          <mxGeometry x="52.5" y="32.91428571428571" width="15" height="13.714285714285715" as="geometry" />
        </mxCell>
        <mxCell id="MQ3nfaRgDuZ902bFgh4B-44" value="5" style="strokeWidth=1;shadow=0;dashed=0;align=center;html=1;shape=mxgraph.mockup.forms.rrect;rSize=0;strokeColor=#999999;fontColor=#999999;" vertex="1" parent="MQ3nfaRgDuZ902bFgh4B-29">
          <mxGeometry x="67.5" y="32.91428571428571" width="15" height="13.714285714285715" as="geometry" />
        </mxCell>
        <mxCell id="MQ3nfaRgDuZ902bFgh4B-45" value="6" style="strokeWidth=1;shadow=0;dashed=0;align=center;html=1;shape=mxgraph.mockup.forms.rrect;rSize=0;strokeColor=#999999;fontColor=#999999;" vertex="1" parent="MQ3nfaRgDuZ902bFgh4B-29">
          <mxGeometry x="82.5" y="32.91428571428571" width="15" height="13.714285714285715" as="geometry" />
        </mxCell>
        <mxCell id="MQ3nfaRgDuZ902bFgh4B-46" value="7" style="strokeWidth=1;shadow=0;dashed=0;align=center;html=1;shape=mxgraph.mockup.forms.rrect;rSize=0;strokeColor=#999999;fontColor=#999999;" vertex="1" parent="MQ3nfaRgDuZ902bFgh4B-29">
          <mxGeometry x="97.5" y="32.91428571428571" width="15" height="13.714285714285715" as="geometry" />
        </mxCell>
        <mxCell id="MQ3nfaRgDuZ902bFgh4B-47" value="8" style="strokeWidth=1;shadow=0;dashed=0;align=center;html=1;shape=mxgraph.mockup.forms.rrect;rSize=0;strokeColor=#999999;fontColor=#999999;" vertex="1" parent="MQ3nfaRgDuZ902bFgh4B-29">
          <mxGeometry x="7.5" y="46.628571428571426" width="15" height="13.714285714285715" as="geometry" />
        </mxCell>
        <mxCell id="MQ3nfaRgDuZ902bFgh4B-48" value="9" style="strokeWidth=1;shadow=0;dashed=0;align=center;html=1;shape=mxgraph.mockup.forms.rrect;rSize=0;strokeColor=#999999;fontColor=#999999;" vertex="1" parent="MQ3nfaRgDuZ902bFgh4B-29">
          <mxGeometry x="22.5" y="46.628571428571426" width="15" height="13.714285714285715" as="geometry" />
        </mxCell>
        <mxCell id="MQ3nfaRgDuZ902bFgh4B-49" value="10" style="strokeWidth=1;shadow=0;dashed=0;align=center;html=1;shape=mxgraph.mockup.forms.rrect;rSize=0;strokeColor=#999999;fontColor=#999999;" vertex="1" parent="MQ3nfaRgDuZ902bFgh4B-29">
          <mxGeometry x="37.5" y="46.628571428571426" width="15" height="13.714285714285715" as="geometry" />
        </mxCell>
        <mxCell id="MQ3nfaRgDuZ902bFgh4B-50" value="11" style="strokeWidth=1;shadow=0;dashed=0;align=center;html=1;shape=mxgraph.mockup.forms.rrect;rSize=0;strokeColor=#999999;fontColor=#999999;" vertex="1" parent="MQ3nfaRgDuZ902bFgh4B-29">
          <mxGeometry x="52.5" y="46.628571428571426" width="15" height="13.714285714285715" as="geometry" />
        </mxCell>
        <mxCell id="MQ3nfaRgDuZ902bFgh4B-51" value="12" style="strokeWidth=1;shadow=0;dashed=0;align=center;html=1;shape=mxgraph.mockup.forms.rrect;rSize=0;strokeColor=#999999;fontColor=#999999;" vertex="1" parent="MQ3nfaRgDuZ902bFgh4B-29">
          <mxGeometry x="67.5" y="46.628571428571426" width="15" height="13.714285714285715" as="geometry" />
        </mxCell>
        <mxCell id="MQ3nfaRgDuZ902bFgh4B-52" value="13" style="strokeWidth=1;shadow=0;dashed=0;align=center;html=1;shape=mxgraph.mockup.forms.rrect;rSize=0;strokeColor=#999999;fontColor=#999999;" vertex="1" parent="MQ3nfaRgDuZ902bFgh4B-29">
          <mxGeometry x="82.5" y="46.628571428571426" width="15" height="13.714285714285715" as="geometry" />
        </mxCell>
        <mxCell id="MQ3nfaRgDuZ902bFgh4B-53" value="14" style="strokeWidth=1;shadow=0;dashed=0;align=center;html=1;shape=mxgraph.mockup.forms.rrect;rSize=0;strokeColor=#999999;fontColor=#999999;" vertex="1" parent="MQ3nfaRgDuZ902bFgh4B-29">
          <mxGeometry x="97.5" y="46.628571428571426" width="15" height="13.714285714285715" as="geometry" />
        </mxCell>
        <mxCell id="MQ3nfaRgDuZ902bFgh4B-54" value="15" style="strokeWidth=1;shadow=0;dashed=0;align=center;html=1;shape=mxgraph.mockup.forms.rrect;rSize=0;strokeColor=#999999;fontColor=#999999;" vertex="1" parent="MQ3nfaRgDuZ902bFgh4B-29">
          <mxGeometry x="7.5" y="60.34285714285714" width="15" height="13.714285714285715" as="geometry" />
        </mxCell>
        <mxCell id="MQ3nfaRgDuZ902bFgh4B-55" value="16" style="strokeWidth=1;shadow=0;dashed=0;align=center;html=1;shape=mxgraph.mockup.forms.rrect;rSize=0;strokeColor=#999999;fontColor=#999999;" vertex="1" parent="MQ3nfaRgDuZ902bFgh4B-29">
          <mxGeometry x="22.5" y="60.34285714285714" width="15" height="13.714285714285715" as="geometry" />
        </mxCell>
        <mxCell id="MQ3nfaRgDuZ902bFgh4B-56" value="17" style="strokeWidth=1;shadow=0;dashed=0;align=center;html=1;shape=mxgraph.mockup.forms.rrect;rSize=0;strokeColor=#999999;fontColor=#999999;" vertex="1" parent="MQ3nfaRgDuZ902bFgh4B-29">
          <mxGeometry x="37.5" y="60.34285714285714" width="15" height="13.714285714285715" as="geometry" />
        </mxCell>
        <mxCell id="MQ3nfaRgDuZ902bFgh4B-57" value="18" style="strokeWidth=1;shadow=0;dashed=0;align=center;html=1;shape=mxgraph.mockup.forms.rrect;rSize=0;strokeColor=#999999;fontColor=#999999;" vertex="1" parent="MQ3nfaRgDuZ902bFgh4B-29">
          <mxGeometry x="52.5" y="60.34285714285714" width="15" height="13.714285714285715" as="geometry" />
        </mxCell>
        <mxCell id="MQ3nfaRgDuZ902bFgh4B-58" value="19" style="strokeWidth=1;shadow=0;dashed=0;align=center;html=1;shape=mxgraph.mockup.forms.rrect;rSize=0;strokeColor=#999999;fontColor=#999999;" vertex="1" parent="MQ3nfaRgDuZ902bFgh4B-29">
          <mxGeometry x="67.5" y="60.34285714285714" width="15" height="13.714285714285715" as="geometry" />
        </mxCell>
        <mxCell id="MQ3nfaRgDuZ902bFgh4B-59" value="20" style="strokeWidth=1;shadow=0;dashed=0;align=center;html=1;shape=mxgraph.mockup.forms.rrect;rSize=0;strokeColor=#999999;fontColor=#999999;" vertex="1" parent="MQ3nfaRgDuZ902bFgh4B-29">
          <mxGeometry x="82.5" y="60.34285714285714" width="15" height="13.714285714285715" as="geometry" />
        </mxCell>
        <mxCell id="MQ3nfaRgDuZ902bFgh4B-60" value="21" style="strokeWidth=1;shadow=0;dashed=0;align=center;html=1;shape=mxgraph.mockup.forms.rrect;rSize=0;strokeColor=#999999;fontColor=#999999;" vertex="1" parent="MQ3nfaRgDuZ902bFgh4B-29">
          <mxGeometry x="97.5" y="60.34285714285714" width="15" height="13.714285714285715" as="geometry" />
        </mxCell>
        <mxCell id="MQ3nfaRgDuZ902bFgh4B-61" value="22" style="strokeWidth=1;shadow=0;dashed=0;align=center;html=1;shape=mxgraph.mockup.forms.rrect;rSize=0;strokeColor=#999999;fontColor=#999999;" vertex="1" parent="MQ3nfaRgDuZ902bFgh4B-29">
          <mxGeometry x="7.5" y="74.05714285714286" width="15" height="13.714285714285715" as="geometry" />
        </mxCell>
        <mxCell id="MQ3nfaRgDuZ902bFgh4B-62" value="23" style="strokeWidth=1;shadow=0;dashed=0;align=center;html=1;shape=mxgraph.mockup.forms.rrect;rSize=0;strokeColor=#999999;fontColor=#999999;" vertex="1" parent="MQ3nfaRgDuZ902bFgh4B-29">
          <mxGeometry x="22.5" y="74.05714285714286" width="15" height="13.714285714285715" as="geometry" />
        </mxCell>
        <mxCell id="MQ3nfaRgDuZ902bFgh4B-63" value="25" style="strokeWidth=1;shadow=0;dashed=0;align=center;html=1;shape=mxgraph.mockup.forms.rrect;rSize=0;strokeColor=#999999;fontColor=#999999;" vertex="1" parent="MQ3nfaRgDuZ902bFgh4B-29">
          <mxGeometry x="52.5" y="74.05714285714286" width="15" height="13.714285714285715" as="geometry" />
        </mxCell>
        <mxCell id="MQ3nfaRgDuZ902bFgh4B-64" value="26" style="strokeWidth=1;shadow=0;dashed=0;align=center;html=1;shape=mxgraph.mockup.forms.rrect;rSize=0;strokeColor=#999999;fontColor=#999999;" vertex="1" parent="MQ3nfaRgDuZ902bFgh4B-29">
          <mxGeometry x="67.5" y="74.05714285714286" width="15" height="13.714285714285715" as="geometry" />
        </mxCell>
        <mxCell id="MQ3nfaRgDuZ902bFgh4B-65" value="27" style="strokeWidth=1;shadow=0;dashed=0;align=center;html=1;shape=mxgraph.mockup.forms.rrect;rSize=0;strokeColor=#999999;fontColor=#999999;" vertex="1" parent="MQ3nfaRgDuZ902bFgh4B-29">
          <mxGeometry x="82.5" y="74.05714285714286" width="15" height="13.714285714285715" as="geometry" />
        </mxCell>
        <mxCell id="MQ3nfaRgDuZ902bFgh4B-66" value="28" style="strokeWidth=1;shadow=0;dashed=0;align=center;html=1;shape=mxgraph.mockup.forms.rrect;rSize=0;strokeColor=#999999;fontColor=#999999;" vertex="1" parent="MQ3nfaRgDuZ902bFgh4B-29">
          <mxGeometry x="97.5" y="74.05714285714286" width="15" height="13.714285714285715" as="geometry" />
        </mxCell>
        <mxCell id="MQ3nfaRgDuZ902bFgh4B-67" value="29" style="strokeWidth=1;shadow=0;dashed=0;align=center;html=1;shape=mxgraph.mockup.forms.rrect;rSize=0;strokeColor=#999999;fontColor=#999999;" vertex="1" parent="MQ3nfaRgDuZ902bFgh4B-29">
          <mxGeometry x="7.5" y="87.77142857142857" width="15" height="13.714285714285715" as="geometry" />
        </mxCell>
        <mxCell id="MQ3nfaRgDuZ902bFgh4B-68" value="30" style="strokeWidth=1;shadow=0;dashed=0;align=center;html=1;shape=mxgraph.mockup.forms.rrect;rSize=0;strokeColor=#999999;fontColor=#999999;" vertex="1" parent="MQ3nfaRgDuZ902bFgh4B-29">
          <mxGeometry x="22.5" y="87.77142857142857" width="15" height="13.714285714285715" as="geometry" />
        </mxCell>
        <mxCell id="MQ3nfaRgDuZ902bFgh4B-69" value="31" style="strokeWidth=1;shadow=0;dashed=0;align=center;html=1;shape=mxgraph.mockup.forms.rrect;rSize=0;strokeColor=#999999;fontColor=#999999;" vertex="1" parent="MQ3nfaRgDuZ902bFgh4B-29">
          <mxGeometry x="37.5" y="87.77142857142857" width="15" height="13.714285714285715" as="geometry" />
        </mxCell>
        <mxCell id="MQ3nfaRgDuZ902bFgh4B-70" value="1" style="strokeWidth=1;shadow=0;dashed=0;align=center;html=1;shape=mxgraph.mockup.forms.rrect;rSize=0;strokeColor=#999999;fontColor=#999999;fillColor=#ddeeff;" vertex="1" parent="MQ3nfaRgDuZ902bFgh4B-29">
          <mxGeometry x="52.5" y="87.77142857142857" width="15" height="13.714285714285715" as="geometry" />
        </mxCell>
        <mxCell id="MQ3nfaRgDuZ902bFgh4B-71" value="2" style="strokeWidth=1;shadow=0;dashed=0;align=center;html=1;shape=mxgraph.mockup.forms.rrect;rSize=0;strokeColor=#999999;fontColor=#999999;fillColor=#ddeeff;" vertex="1" parent="MQ3nfaRgDuZ902bFgh4B-29">
          <mxGeometry x="67.5" y="87.77142857142857" width="15" height="13.714285714285715" as="geometry" />
        </mxCell>
        <mxCell id="MQ3nfaRgDuZ902bFgh4B-72" value="3" style="strokeWidth=1;shadow=0;dashed=0;align=center;html=1;shape=mxgraph.mockup.forms.rrect;rSize=0;strokeColor=#999999;fontColor=#999999;fillColor=#ddeeff;" vertex="1" parent="MQ3nfaRgDuZ902bFgh4B-29">
          <mxGeometry x="82.5" y="87.77142857142857" width="15" height="13.714285714285715" as="geometry" />
        </mxCell>
        <mxCell id="MQ3nfaRgDuZ902bFgh4B-73" value="4" style="strokeWidth=1;shadow=0;dashed=0;align=center;html=1;shape=mxgraph.mockup.forms.rrect;rSize=0;strokeColor=#999999;fontColor=#999999;fillColor=#ddeeff;" vertex="1" parent="MQ3nfaRgDuZ902bFgh4B-29">
          <mxGeometry x="97.5" y="87.77142857142857" width="15" height="13.714285714285715" as="geometry" />
        </mxCell>
        <mxCell id="MQ3nfaRgDuZ902bFgh4B-74" value="5" style="strokeWidth=1;shadow=0;dashed=0;align=center;html=1;shape=mxgraph.mockup.forms.rrect;rSize=0;strokeColor=#999999;fontColor=#999999;fillColor=#ddeeff;" vertex="1" parent="MQ3nfaRgDuZ902bFgh4B-29">
          <mxGeometry x="7.5" y="101.48571428571428" width="15" height="13.714285714285715" as="geometry" />
        </mxCell>
        <mxCell id="MQ3nfaRgDuZ902bFgh4B-75" value="6" style="strokeWidth=1;shadow=0;dashed=0;align=center;html=1;shape=mxgraph.mockup.forms.rrect;rSize=0;strokeColor=#999999;fontColor=#999999;fillColor=#ddeeff;" vertex="1" parent="MQ3nfaRgDuZ902bFgh4B-29">
          <mxGeometry x="22.5" y="101.48571428571428" width="15" height="13.714285714285715" as="geometry" />
        </mxCell>
        <mxCell id="MQ3nfaRgDuZ902bFgh4B-76" value="7" style="strokeWidth=1;shadow=0;dashed=0;align=center;html=1;shape=mxgraph.mockup.forms.rrect;rSize=0;strokeColor=#999999;fontColor=#999999;fillColor=#ddeeff;" vertex="1" parent="MQ3nfaRgDuZ902bFgh4B-29">
          <mxGeometry x="37.5" y="101.48571428571428" width="15" height="13.714285714285715" as="geometry" />
        </mxCell>
        <mxCell id="MQ3nfaRgDuZ902bFgh4B-77" value="8" style="strokeWidth=1;shadow=0;dashed=0;align=center;html=1;shape=mxgraph.mockup.forms.rrect;rSize=0;strokeColor=#999999;fontColor=#999999;fillColor=#ddeeff;" vertex="1" parent="MQ3nfaRgDuZ902bFgh4B-29">
          <mxGeometry x="52.5" y="101.48571428571428" width="15" height="13.714285714285715" as="geometry" />
        </mxCell>
        <mxCell id="MQ3nfaRgDuZ902bFgh4B-78" value="9" style="strokeWidth=1;shadow=0;dashed=0;align=center;html=1;shape=mxgraph.mockup.forms.rrect;rSize=0;strokeColor=#999999;fontColor=#999999;fillColor=#ddeeff;" vertex="1" parent="MQ3nfaRgDuZ902bFgh4B-29">
          <mxGeometry x="67.5" y="101.48571428571428" width="15" height="13.714285714285715" as="geometry" />
        </mxCell>
        <mxCell id="MQ3nfaRgDuZ902bFgh4B-79" value="10" style="strokeWidth=1;shadow=0;dashed=0;align=center;html=1;shape=mxgraph.mockup.forms.rrect;rSize=0;strokeColor=#999999;fontColor=#999999;fillColor=#ddeeff;" vertex="1" parent="MQ3nfaRgDuZ902bFgh4B-29">
          <mxGeometry x="82.5" y="101.48571428571428" width="15" height="13.714285714285715" as="geometry" />
        </mxCell>
        <mxCell id="MQ3nfaRgDuZ902bFgh4B-80" value="11" style="strokeWidth=1;shadow=0;dashed=0;align=center;html=1;shape=mxgraph.mockup.forms.rrect;rSize=0;strokeColor=#999999;fontColor=#999999;fillColor=#ddeeff;" vertex="1" parent="MQ3nfaRgDuZ902bFgh4B-29">
          <mxGeometry x="97.5" y="101.48571428571428" width="15" height="13.714285714285715" as="geometry" />
        </mxCell>
        <mxCell id="MQ3nfaRgDuZ902bFgh4B-81" value="24" style="strokeWidth=1;shadow=0;dashed=0;align=center;html=1;shape=mxgraph.mockup.forms.rrect;rSize=0;strokeColor=#ff0000;fontColor=#ffffff;strokeWidth=2;fillColor=#008cff;" vertex="1" parent="MQ3nfaRgDuZ902bFgh4B-29">
          <mxGeometry x="37.5" y="74.05714285714286" width="15" height="13.714285714285715" as="geometry" />
        </mxCell>
        <mxCell id="MQ3nfaRgDuZ902bFgh4B-82" value="Agree" style="shape=ellipse;fillColor=#eeeeee;strokeColor=#999999;gradientColor=#cccccc;html=1;align=left;spacingLeft=4;fontSize=17;fontColor=#666666;labelPosition=right;shadow=0;" vertex="1" parent="1">
          <mxGeometry x="140" y="460" width="15" height="15" as="geometry" />
        </mxCell>
        <mxCell id="MQ3nfaRgDuZ902bFgh4B-84" value="Disagree" style="shape=ellipse;fillColor=#eeeeee;strokeColor=#999999;gradientColor=#cccccc;html=1;align=left;spacingLeft=4;fontSize=17;fontColor=#666666;labelPosition=right;shadow=0;" vertex="1" parent="1">
          <mxGeometry x="335" y="460" width="15" height="15" as="geometry" />
        </mxCell>
        <mxCell id="MQ3nfaRgDuZ902bFgh4B-85" value="Enter Name" style="rounded=0;whiteSpace=wrap;html=1;" vertex="1" parent="1">
          <mxGeometry x="150" y="180" width="110" height="20" as="geometry" />
        </mxCell>
        <mxCell id="MQ3nfaRgDuZ902bFgh4B-86" value="Arrive" style="text;strokeColor=none;align=center;fillColor=none;html=1;verticalAlign=middle;whiteSpace=wrap;rounded=0;" vertex="1" parent="1">
          <mxGeometry x="162.5" y="250" width="65" height="30" as="geometry" />
        </mxCell>
        <mxCell id="MQ3nfaRgDuZ902bFgh4B-88" value="&lt;div&gt;Select Room Type&lt;/div&gt;" style="html=1;shadow=0;dashed=0;shape=mxgraph.bootstrap.rrect;rSize=5;strokeColor=#505050;strokeWidth=1;fillColor=#ffffff;fontColor=#777777;whiteSpace=wrap;align=left;verticalAlign=middle;fontStyle=0;fontSize=12;spacing=15;" vertex="1" parent="1">
          <mxGeometry x="690" y="190" width="190" height="30" as="geometry" />
        </mxCell>
        <mxCell id="MQ3nfaRgDuZ902bFgh4B-89" value="" style="shape=triangle;direction=south;fillColor=#495057;strokeColor=none;perimeter=none;" vertex="1" parent="MQ3nfaRgDuZ902bFgh4B-88">
          <mxGeometry x="1" y="0.5" width="10" height="5" relative="1" as="geometry">
            <mxPoint x="-17" y="-2.5" as="offset" />
          </mxGeometry>
        </mxCell>
        <mxCell id="MQ3nfaRgDuZ902bFgh4B-90" value="Number of Adults" style="html=1;shadow=0;dashed=0;shape=mxgraph.bootstrap.rangeInput;dx=0.6;strokeColor=#0085FC;fillColor=#DEE2E6;fontColor=#777777;whiteSpace=wrap;align=left;verticalAlign=bottom;fontStyle=0;fontSize=14;labelPosition=center;verticalLabelPosition=top;" vertex="1" parent="1">
          <mxGeometry x="690" y="270" width="190" height="20" as="geometry" />
        </mxCell>
        <mxCell id="MQ3nfaRgDuZ902bFgh4B-91" value="&lt;div&gt;Number of Children&lt;/div&gt;" style="html=1;shadow=0;dashed=0;shape=mxgraph.bootstrap.rangeInput;dx=0.6;strokeColor=#0085FC;fillColor=#DEE2E6;fontColor=#777777;whiteSpace=wrap;align=left;verticalAlign=bottom;fontStyle=0;fontSize=14;labelPosition=center;verticalLabelPosition=top;" vertex="1" parent="1">
          <mxGeometry x="690" y="320" width="190" height="20" as="geometry" />
        </mxCell>
        <mxCell id="MQ3nfaRgDuZ902bFgh4B-92" value="&lt;div&gt;Swimming Equipment&lt;/div&gt;" style="strokeWidth=1;shadow=0;dashed=0;align=center;html=1;shape=mxgraph.mockup.text.textBox;fontColor=#666666;align=left;fontSize=17;spacingLeft=4;spacingTop=-3;whiteSpace=wrap;strokeColor=#666666;mainText=" vertex="1" parent="1">
          <mxGeometry x="710" y="1080" width="180" height="30" as="geometry" />
        </mxCell>
        <mxCell id="MQ3nfaRgDuZ902bFgh4B-95" value="Number Box" style="html=1;shadow=0;dashed=0;shape=mxgraph.bootstrap.rrect;rSize=5;strokeColor=#505050;strokeWidth=1;fillColor=#ffffff;fontColor=#777777;whiteSpace=wrap;align=left;verticalAlign=middle;fontStyle=0;fontSize=12;spacing=15;" vertex="1" parent="1">
          <mxGeometry x="710" y="1140" width="190" height="30" as="geometry" />
        </mxCell>
        <mxCell id="MQ3nfaRgDuZ902bFgh4B-96" value="" style="shape=triangle;direction=south;fillColor=#495057;strokeColor=none;perimeter=none;" vertex="1" parent="MQ3nfaRgDuZ902bFgh4B-95">
          <mxGeometry x="1" y="0.5" width="10" height="5" relative="1" as="geometry">
            <mxPoint x="-17" y="-2.5" as="offset" />
          </mxGeometry>
        </mxCell>
        <mxCell id="MQ3nfaRgDuZ902bFgh4B-97" value="Number Box" style="html=1;shadow=0;dashed=0;shape=mxgraph.bootstrap.rrect;rSize=5;strokeColor=#505050;strokeWidth=1;fillColor=#ffffff;fontColor=#777777;whiteSpace=wrap;align=left;verticalAlign=middle;fontStyle=0;fontSize=12;spacing=15;" vertex="1" parent="1">
          <mxGeometry x="710" y="1180" width="190" height="30" as="geometry" />
        </mxCell>
        <mxCell id="MQ3nfaRgDuZ902bFgh4B-98" value="" style="shape=triangle;direction=south;fillColor=#495057;strokeColor=none;perimeter=none;" vertex="1" parent="MQ3nfaRgDuZ902bFgh4B-97">
          <mxGeometry x="1" y="0.5" width="10" height="5" relative="1" as="geometry">
            <mxPoint x="-17" y="-2.5" as="offset" />
          </mxGeometry>
        </mxCell>
        <mxCell id="MQ3nfaRgDuZ902bFgh4B-99" value="Number Box" style="html=1;shadow=0;dashed=0;shape=mxgraph.bootstrap.rrect;rSize=5;strokeColor=#505050;strokeWidth=1;fillColor=#ffffff;fontColor=#777777;whiteSpace=wrap;align=left;verticalAlign=middle;fontStyle=0;fontSize=12;spacing=15;" vertex="1" parent="1">
          <mxGeometry x="710" y="1260" width="190" height="30" as="geometry" />
        </mxCell>
        <mxCell id="MQ3nfaRgDuZ902bFgh4B-100" value="" style="shape=triangle;direction=south;fillColor=#495057;strokeColor=none;perimeter=none;" vertex="1" parent="MQ3nfaRgDuZ902bFgh4B-99">
          <mxGeometry x="1" y="0.5" width="10" height="5" relative="1" as="geometry">
            <mxPoint x="-17" y="-2.5" as="offset" />
          </mxGeometry>
        </mxCell>
        <mxCell id="MQ3nfaRgDuZ902bFgh4B-101" value="Number Box" style="html=1;shadow=0;dashed=0;shape=mxgraph.bootstrap.rrect;rSize=5;strokeColor=#505050;strokeWidth=1;fillColor=#ffffff;fontColor=#777777;whiteSpace=wrap;align=left;verticalAlign=middle;fontStyle=0;fontSize=12;spacing=15;" vertex="1" parent="1">
          <mxGeometry x="710" y="1220" width="190" height="30" as="geometry" />
        </mxCell>
        <mxCell id="MQ3nfaRgDuZ902bFgh4B-102" value="" style="shape=triangle;direction=south;fillColor=#495057;strokeColor=none;perimeter=none;" vertex="1" parent="MQ3nfaRgDuZ902bFgh4B-101">
          <mxGeometry x="1" y="0.5" width="10" height="5" relative="1" as="geometry">
            <mxPoint x="-17" y="-2.5" as="offset" />
          </mxGeometry>
        </mxCell>
        <mxCell id="MQ3nfaRgDuZ902bFgh4B-103" value="" style="verticalLabelPosition=bottom;shadow=0;dashed=0;align=center;html=1;verticalAlign=top;strokeWidth=1;shape=mxgraph.mockup.forms.colorPicker;chosenColor=#aaddff;" vertex="1" parent="1">
          <mxGeometry x="930" y="1260" width="40" height="40" as="geometry" />
        </mxCell>
        <mxCell id="MQ3nfaRgDuZ902bFgh4B-104" value="&lt;div&gt;Select Colour&lt;/div&gt;&lt;div&gt;&lt;br&gt;&lt;/div&gt;" style="text;strokeColor=none;align=center;fillColor=none;html=1;verticalAlign=middle;whiteSpace=wrap;rounded=0;" vertex="1" parent="1">
          <mxGeometry x="920" y="1230" width="60" height="30" as="geometry" />
        </mxCell>
        <mxCell id="MQ3nfaRgDuZ902bFgh4B-105" value="&lt;div&gt;Cooking Facilities&lt;/div&gt;" style="strokeWidth=1;shadow=0;dashed=0;align=center;html=1;shape=mxgraph.mockup.text.textBox;fontColor=#666666;align=left;fontSize=17;spacingLeft=4;spacingTop=-3;whiteSpace=wrap;strokeColor=#666666;mainText=" vertex="1" parent="1">
          <mxGeometry x="200" y="1120" width="180" height="30" as="geometry" />
        </mxCell>
        <mxCell id="MQ3nfaRgDuZ902bFgh4B-106" value="Contact Email" style="strokeWidth=1;shadow=0;dashed=0;align=center;html=1;shape=mxgraph.mockup.text.textBox;fontColor=#666666;align=left;fontSize=17;spacingLeft=4;spacingTop=-3;whiteSpace=wrap;strokeColor=#666666;mainText=" vertex="1" parent="1">
          <mxGeometry x="185" y="1330" width="180" height="30" as="geometry" />
        </mxCell>
        <mxCell id="MQ3nfaRgDuZ902bFgh4B-107" value="" style="verticalLabelPosition=bottom;shadow=0;dashed=0;align=center;html=1;verticalAlign=top;strokeWidth=1;shape=mxgraph.mockup.misc.mail2;strokeColor=#999999;" vertex="1" parent="1">
          <mxGeometry x="310" y="1330" width="55" height="30" as="geometry" />
        </mxCell>
        <mxCell id="MQ3nfaRgDuZ902bFgh4B-108" value="Summary" style="strokeWidth=1;shadow=0;dashed=0;align=center;html=1;shape=mxgraph.mockup.containers.window;align=left;verticalAlign=top;spacingLeft=8;strokeColor2=#008cff;strokeColor3=#c4c4c4;fontColor=#666666;mainText=;fontSize=17;labelBackgroundColor=none;whiteSpace=wrap;" vertex="1" parent="1">
          <mxGeometry x="32.5" y="1790" width="490" height="560" as="geometry" />
        </mxCell>
        <mxCell id="MQ3nfaRgDuZ902bFgh4B-109" style="edgeStyle=orthogonalEdgeStyle;rounded=0;orthogonalLoop=1;jettySize=auto;html=1;entryX=0.491;entryY=-0.005;entryDx=0;entryDy=0;entryPerimeter=0;" edge="1" parent="1" source="MQ3nfaRgDuZ902bFgh4B-5" target="MQ3nfaRgDuZ902bFgh4B-108">
          <mxGeometry relative="1" as="geometry" />
        </mxCell>
        <mxCell id="MQ3nfaRgDuZ902bFgh4B-110" value="Submit" style="strokeWidth=1;shadow=0;dashed=0;align=center;html=1;shape=mxgraph.mockup.buttons.button;strokeColor=#666666;fontColor=#ffffff;mainText=;buttonStyle=round;fontSize=17;fontStyle=1;fillColor=#008cff;whiteSpace=wrap;" vertex="1" parent="1">
          <mxGeometry x="325" y="2250" width="100" height="25" as="geometry" />
        </mxCell>
        <mxCell id="MQ3nfaRgDuZ902bFgh4B-111" value="&lt;table border=&quot;0&quot; cellpadding=&quot;0&quot; cellspacing=&quot;0&quot; width=&quot;100%&quot; height=&quot;100%&quot; style=&quot;font-size:1em;&quot;&gt;&lt;tbody&gt;&lt;tr height=&quot;0%&quot;&gt;&lt;td width=&quot;25%&quot;&gt;&lt;span style=&quot;white-space: pre;&quot;&gt;&#x9;&lt;/span&gt;&lt;span style=&quot;white-space: pre;&quot;&gt;&#x9;&lt;/span&gt;&amp;nbsp;&amp;nbsp;&amp;nbsp;&amp;nbsp; Progress Bar&lt;br&gt;&lt;/td&gt;&lt;td width=&quot;25%&quot;&gt;&lt;br&gt;&lt;/td&gt;&lt;td width=&quot;25%&quot; style=&quot;color:#008cff;&quot;&gt;&lt;br&gt;&lt;/td&gt;&lt;td width=&quot;25%&quot;&gt;&lt;br&gt;&lt;/td&gt;&lt;/tr&gt;&lt;tr height=&quot;100%&quot;&gt;&lt;td&gt;&lt;/td&gt;&lt;/tr&gt;&lt;/tbody&gt;&lt;/table&gt;" style="strokeWidth=1;shadow=0;dashed=0;align=center;html=1;shape=mxgraph.mockup.navigation.stepBar;strokeColor=#c4c4c4;textColor=#666666;textColor2=#008cff;mainText=,,+,;textSize=17;fillColor=#666666;overflow=fill;fontSize=17;fontColor=#666666;" vertex="1" parent="1">
          <mxGeometry x="125" y="1830" width="300" height="50" as="geometry" />
        </mxCell>
        <mxCell id="MQ3nfaRgDuZ902bFgh4B-112" value="Back" style="strokeWidth=1;shadow=0;dashed=0;align=center;html=1;shape=mxgraph.mockup.buttons.button;strokeColor=#666666;fontColor=#ffffff;mainText=;buttonStyle=round;fontSize=17;fontStyle=1;fillColor=#008cff;whiteSpace=wrap;" vertex="1" parent="1">
          <mxGeometry x="90" y="2250" width="100" height="25" as="geometry" />
        </mxCell>
        <mxCell id="MQ3nfaRgDuZ902bFgh4B-114" value="&lt;div&gt;Confirm Booking&lt;/div&gt;" style="strokeWidth=1;shadow=0;dashed=0;align=center;html=1;shape=mxgraph.mockup.text.textBox;fontColor=#666666;align=left;fontSize=17;spacingLeft=4;spacingTop=-3;whiteSpace=wrap;strokeColor=#666666;mainText=" vertex="1" parent="1">
          <mxGeometry x="185" y="1900" width="150" height="30" as="geometry" />
        </mxCell>
        <mxCell id="MQ3nfaRgDuZ902bFgh4B-117" value="Number Staying" style="strokeWidth=1;shadow=0;dashed=0;align=center;html=1;shape=mxgraph.mockup.text.textBox;fontColor=#666666;align=left;fontSize=17;spacingLeft=4;spacingTop=-3;whiteSpace=wrap;strokeColor=#666666;mainText=" vertex="1" parent="1">
          <mxGeometry x="280" y="2020" width="150" height="30" as="geometry" />
        </mxCell>
        <mxCell id="MQ3nfaRgDuZ902bFgh4B-118" value="Name - Email" style="strokeWidth=1;shadow=0;dashed=0;align=center;html=1;shape=mxgraph.mockup.text.textBox;fontColor=#666666;align=left;fontSize=17;spacingLeft=4;spacingTop=-3;whiteSpace=wrap;strokeColor=#666666;mainText=" vertex="1" parent="1">
          <mxGeometry x="120" y="1970" width="150" height="30" as="geometry" />
        </mxCell>
        <mxCell id="MQ3nfaRgDuZ902bFgh4B-119" value="Date" style="strokeWidth=1;shadow=0;dashed=0;align=center;html=1;shape=mxgraph.mockup.text.textBox;fontColor=#666666;align=left;fontSize=17;spacingLeft=4;spacingTop=-3;whiteSpace=wrap;strokeColor=#666666;mainText=" vertex="1" parent="1">
          <mxGeometry x="280" y="1970" width="150" height="30" as="geometry" />
        </mxCell>
        <mxCell id="MQ3nfaRgDuZ902bFgh4B-120" value="Room Type" style="strokeWidth=1;shadow=0;dashed=0;align=center;html=1;shape=mxgraph.mockup.text.textBox;fontColor=#666666;align=left;fontSize=17;spacingLeft=4;spacingTop=-3;whiteSpace=wrap;strokeColor=#666666;mainText=" vertex="1" parent="1">
          <mxGeometry x="120" y="2020" width="150" height="30" as="geometry" />
        </mxCell>
        <mxCell id="MQ3nfaRgDuZ902bFgh4B-121" value="Cooking Facilities" style="swimlane;fontStyle=0;childLayout=stackLayout;horizontal=1;startSize=30;horizontalStack=0;resizeParent=1;resizeParentMax=0;resizeLast=0;collapsible=1;marginBottom=0;whiteSpace=wrap;html=1;" vertex="1" parent="1">
          <mxGeometry x="120" y="2070" width="150" height="120" as="geometry" />
        </mxCell>
        <mxCell id="MQ3nfaRgDuZ902bFgh4B-122" value="Item 1" style="text;strokeColor=none;fillColor=none;align=left;verticalAlign=middle;spacingLeft=4;spacingRight=4;overflow=hidden;points=[[0,0.5],[1,0.5]];portConstraint=eastwest;rotatable=0;whiteSpace=wrap;html=1;" vertex="1" parent="MQ3nfaRgDuZ902bFgh4B-121">
          <mxGeometry y="30" width="150" height="30" as="geometry" />
        </mxCell>
        <mxCell id="MQ3nfaRgDuZ902bFgh4B-123" value="Item 2" style="text;strokeColor=none;fillColor=none;align=left;verticalAlign=middle;spacingLeft=4;spacingRight=4;overflow=hidden;points=[[0,0.5],[1,0.5]];portConstraint=eastwest;rotatable=0;whiteSpace=wrap;html=1;" vertex="1" parent="MQ3nfaRgDuZ902bFgh4B-121">
          <mxGeometry y="60" width="150" height="30" as="geometry" />
        </mxCell>
        <mxCell id="MQ3nfaRgDuZ902bFgh4B-124" value="Item 3" style="text;strokeColor=none;fillColor=none;align=left;verticalAlign=middle;spacingLeft=4;spacingRight=4;overflow=hidden;points=[[0,0.5],[1,0.5]];portConstraint=eastwest;rotatable=0;whiteSpace=wrap;html=1;" vertex="1" parent="MQ3nfaRgDuZ902bFgh4B-121">
          <mxGeometry y="90" width="150" height="30" as="geometry" />
        </mxCell>
        <mxCell id="MQ3nfaRgDuZ902bFgh4B-129" value="Equiment" style="shape=table;startSize=30;container=1;collapsible=0;childLayout=tableLayout;" vertex="1" parent="1">
          <mxGeometry x="295" y="2070" width="120" height="120" as="geometry" />
        </mxCell>
        <mxCell id="MQ3nfaRgDuZ902bFgh4B-130" value="" style="shape=tableRow;horizontal=0;startSize=0;swimlaneHead=0;swimlaneBody=0;strokeColor=inherit;top=0;left=0;bottom=0;right=0;collapsible=0;dropTarget=0;fillColor=none;points=[[0,0.5],[1,0.5]];portConstraint=eastwest;" vertex="1" parent="MQ3nfaRgDuZ902bFgh4B-129">
          <mxGeometry y="30" width="120" height="23" as="geometry" />
        </mxCell>
        <mxCell id="MQ3nfaRgDuZ902bFgh4B-131" value="" style="shape=partialRectangle;html=1;whiteSpace=wrap;connectable=0;strokeColor=inherit;overflow=hidden;fillColor=none;top=0;left=0;bottom=0;right=0;pointerEvents=1;" vertex="1" parent="MQ3nfaRgDuZ902bFgh4B-130">
          <mxGeometry width="60" height="23" as="geometry">
            <mxRectangle width="60" height="23" as="alternateBounds" />
          </mxGeometry>
        </mxCell>
        <mxCell id="MQ3nfaRgDuZ902bFgh4B-132" value="" style="shape=partialRectangle;html=1;whiteSpace=wrap;connectable=0;strokeColor=inherit;overflow=hidden;fillColor=none;top=0;left=0;bottom=0;right=0;pointerEvents=1;" vertex="1" parent="MQ3nfaRgDuZ902bFgh4B-130">
          <mxGeometry x="60" width="60" height="23" as="geometry">
            <mxRectangle width="60" height="23" as="alternateBounds" />
          </mxGeometry>
        </mxCell>
        <mxCell id="MQ3nfaRgDuZ902bFgh4B-133" value="" style="shape=tableRow;horizontal=0;startSize=0;swimlaneHead=0;swimlaneBody=0;strokeColor=inherit;top=0;left=0;bottom=0;right=0;collapsible=0;dropTarget=0;fillColor=none;points=[[0,0.5],[1,0.5]];portConstraint=eastwest;" vertex="1" parent="MQ3nfaRgDuZ902bFgh4B-129">
          <mxGeometry y="53" width="120" height="22" as="geometry" />
        </mxCell>
        <mxCell id="MQ3nfaRgDuZ902bFgh4B-134" value="" style="shape=partialRectangle;html=1;whiteSpace=wrap;connectable=0;strokeColor=inherit;overflow=hidden;fillColor=none;top=0;left=0;bottom=0;right=0;pointerEvents=1;" vertex="1" parent="MQ3nfaRgDuZ902bFgh4B-133">
          <mxGeometry width="60" height="22" as="geometry">
            <mxRectangle width="60" height="22" as="alternateBounds" />
          </mxGeometry>
        </mxCell>
        <mxCell id="MQ3nfaRgDuZ902bFgh4B-135" value="" style="shape=partialRectangle;html=1;whiteSpace=wrap;connectable=0;strokeColor=inherit;overflow=hidden;fillColor=none;top=0;left=0;bottom=0;right=0;pointerEvents=1;" vertex="1" parent="MQ3nfaRgDuZ902bFgh4B-133">
          <mxGeometry x="60" width="60" height="22" as="geometry">
            <mxRectangle width="60" height="22" as="alternateBounds" />
          </mxGeometry>
        </mxCell>
        <mxCell id="MQ3nfaRgDuZ902bFgh4B-136" value="" style="shape=tableRow;horizontal=0;startSize=0;swimlaneHead=0;swimlaneBody=0;strokeColor=inherit;top=0;left=0;bottom=0;right=0;collapsible=0;dropTarget=0;fillColor=none;points=[[0,0.5],[1,0.5]];portConstraint=eastwest;" vertex="1" parent="MQ3nfaRgDuZ902bFgh4B-129">
          <mxGeometry y="75" width="120" height="23" as="geometry" />
        </mxCell>
        <mxCell id="MQ3nfaRgDuZ902bFgh4B-137" value="" style="shape=partialRectangle;html=1;whiteSpace=wrap;connectable=0;strokeColor=inherit;overflow=hidden;fillColor=none;top=0;left=0;bottom=0;right=0;pointerEvents=1;" vertex="1" parent="MQ3nfaRgDuZ902bFgh4B-136">
          <mxGeometry width="60" height="23" as="geometry">
            <mxRectangle width="60" height="23" as="alternateBounds" />
          </mxGeometry>
        </mxCell>
        <mxCell id="MQ3nfaRgDuZ902bFgh4B-138" value="" style="shape=partialRectangle;html=1;whiteSpace=wrap;connectable=0;strokeColor=inherit;overflow=hidden;fillColor=none;top=0;left=0;bottom=0;right=0;pointerEvents=1;" vertex="1" parent="MQ3nfaRgDuZ902bFgh4B-136">
          <mxGeometry x="60" width="60" height="23" as="geometry">
            <mxRectangle width="60" height="23" as="alternateBounds" />
          </mxGeometry>
        </mxCell>
        <mxCell id="MQ3nfaRgDuZ902bFgh4B-139" value="" style="shape=tableRow;horizontal=0;startSize=0;swimlaneHead=0;swimlaneBody=0;strokeColor=inherit;top=0;left=0;bottom=0;right=0;collapsible=0;dropTarget=0;fillColor=none;points=[[0,0.5],[1,0.5]];portConstraint=eastwest;" vertex="1" parent="MQ3nfaRgDuZ902bFgh4B-129">
          <mxGeometry y="98" width="120" height="22" as="geometry" />
        </mxCell>
        <mxCell id="MQ3nfaRgDuZ902bFgh4B-140" value="" style="shape=partialRectangle;html=1;whiteSpace=wrap;connectable=0;strokeColor=inherit;overflow=hidden;fillColor=none;top=0;left=0;bottom=0;right=0;pointerEvents=1;" vertex="1" parent="MQ3nfaRgDuZ902bFgh4B-139">
          <mxGeometry width="60" height="22" as="geometry">
            <mxRectangle width="60" height="22" as="alternateBounds" />
          </mxGeometry>
        </mxCell>
        <mxCell id="MQ3nfaRgDuZ902bFgh4B-141" value="" style="shape=partialRectangle;html=1;whiteSpace=wrap;connectable=0;strokeColor=inherit;overflow=hidden;fillColor=none;top=0;left=0;bottom=0;right=0;pointerEvents=1;" vertex="1" parent="MQ3nfaRgDuZ902bFgh4B-139">
          <mxGeometry x="60" width="60" height="22" as="geometry">
            <mxRectangle width="60" height="22" as="alternateBounds" />
          </mxGeometry>
        </mxCell>
        <mxCell id="MQ3nfaRgDuZ902bFgh4B-142" value="" style="strokeWidth=1;shadow=0;dashed=0;align=center;html=1;shape=mxgraph.mockup.forms.rrect;rSize=5;strokeColor=#999999;fillColor=#ffffff;" vertex="1" parent="1">
          <mxGeometry x="300" y="300" width="120" height="120" as="geometry" />
        </mxCell>
        <mxCell id="MQ3nfaRgDuZ902bFgh4B-143" value="October 2014" style="strokeWidth=1;shadow=0;dashed=0;align=center;html=1;shape=mxgraph.mockup.forms.anchor;fontColor=#999999;" vertex="1" parent="MQ3nfaRgDuZ902bFgh4B-142">
          <mxGeometry x="22.5" y="5.485714285714286" width="75" height="13.714285714285715" as="geometry" />
        </mxCell>
        <mxCell id="MQ3nfaRgDuZ902bFgh4B-144" value="&lt;" style="strokeWidth=1;shadow=0;dashed=0;align=center;html=1;shape=mxgraph.mockup.forms.rrect;rSize=4;strokeColor=#999999;fontColor=#008cff;fontSize=19;fontStyle=1;" vertex="1" parent="MQ3nfaRgDuZ902bFgh4B-142">
          <mxGeometry x="6" y="5.485714285714286" width="18.75" height="13.714285714285715" as="geometry" />
        </mxCell>
        <mxCell id="MQ3nfaRgDuZ902bFgh4B-145" value="&gt;" style="strokeWidth=1;shadow=0;dashed=0;align=center;html=1;shape=mxgraph.mockup.forms.rrect;rSize=4;strokeColor=#999999;fontColor=#008cff;fontSize=19;fontStyle=1;" vertex="1" parent="MQ3nfaRgDuZ902bFgh4B-142">
          <mxGeometry x="95.25" y="5.485714285714286" width="18.75" height="13.714285714285715" as="geometry" />
        </mxCell>
        <mxCell id="MQ3nfaRgDuZ902bFgh4B-146" value="Mo" style="strokeWidth=1;shadow=0;dashed=0;align=center;html=1;shape=mxgraph.mockup.forms.anchor;fontColor=#999999;" vertex="1" parent="MQ3nfaRgDuZ902bFgh4B-142">
          <mxGeometry x="7.5" y="19.2" width="15" height="13.714285714285715" as="geometry" />
        </mxCell>
        <mxCell id="MQ3nfaRgDuZ902bFgh4B-147" value="Tu" style="strokeWidth=1;shadow=0;dashed=0;align=center;html=1;shape=mxgraph.mockup.forms.anchor;fontColor=#999999;" vertex="1" parent="MQ3nfaRgDuZ902bFgh4B-142">
          <mxGeometry x="22.5" y="19.2" width="15" height="13.714285714285715" as="geometry" />
        </mxCell>
        <mxCell id="MQ3nfaRgDuZ902bFgh4B-148" value="We" style="strokeWidth=1;shadow=0;dashed=0;align=center;html=1;shape=mxgraph.mockup.forms.anchor;fontColor=#999999;" vertex="1" parent="MQ3nfaRgDuZ902bFgh4B-142">
          <mxGeometry x="37.5" y="19.2" width="15" height="13.714285714285715" as="geometry" />
        </mxCell>
        <mxCell id="MQ3nfaRgDuZ902bFgh4B-149" value="Th" style="strokeWidth=1;shadow=0;dashed=0;align=center;html=1;shape=mxgraph.mockup.forms.anchor;fontColor=#999999;" vertex="1" parent="MQ3nfaRgDuZ902bFgh4B-142">
          <mxGeometry x="52.5" y="19.2" width="15" height="13.714285714285715" as="geometry" />
        </mxCell>
        <mxCell id="MQ3nfaRgDuZ902bFgh4B-150" value="Fr" style="strokeWidth=1;shadow=0;dashed=0;align=center;html=1;shape=mxgraph.mockup.forms.anchor;fontColor=#999999;" vertex="1" parent="MQ3nfaRgDuZ902bFgh4B-142">
          <mxGeometry x="67.5" y="19.2" width="15" height="13.714285714285715" as="geometry" />
        </mxCell>
        <mxCell id="MQ3nfaRgDuZ902bFgh4B-151" value="Sa" style="strokeWidth=1;shadow=0;dashed=0;align=center;html=1;shape=mxgraph.mockup.forms.anchor;fontColor=#999999;" vertex="1" parent="MQ3nfaRgDuZ902bFgh4B-142">
          <mxGeometry x="82.5" y="19.2" width="15" height="13.714285714285715" as="geometry" />
        </mxCell>
        <mxCell id="MQ3nfaRgDuZ902bFgh4B-152" value="Su" style="strokeWidth=1;shadow=0;dashed=0;align=center;html=1;shape=mxgraph.mockup.forms.anchor;fontColor=#999999;" vertex="1" parent="MQ3nfaRgDuZ902bFgh4B-142">
          <mxGeometry x="97.5" y="19.2" width="15" height="13.714285714285715" as="geometry" />
        </mxCell>
        <mxCell id="MQ3nfaRgDuZ902bFgh4B-153" value="1" style="strokeWidth=1;shadow=0;dashed=0;align=center;html=1;shape=mxgraph.mockup.forms.rrect;rSize=0;strokeColor=#999999;fontColor=#999999;" vertex="1" parent="MQ3nfaRgDuZ902bFgh4B-142">
          <mxGeometry x="7.5" y="32.91428571428571" width="15" height="13.714285714285715" as="geometry" />
        </mxCell>
        <mxCell id="MQ3nfaRgDuZ902bFgh4B-154" value="2" style="strokeWidth=1;shadow=0;dashed=0;align=center;html=1;shape=mxgraph.mockup.forms.rrect;rSize=0;strokeColor=#999999;fontColor=#999999;" vertex="1" parent="MQ3nfaRgDuZ902bFgh4B-142">
          <mxGeometry x="22.5" y="32.91428571428571" width="15" height="13.714285714285715" as="geometry" />
        </mxCell>
        <mxCell id="MQ3nfaRgDuZ902bFgh4B-155" value="3" style="strokeWidth=1;shadow=0;dashed=0;align=center;html=1;shape=mxgraph.mockup.forms.rrect;rSize=0;strokeColor=#999999;fontColor=#999999;" vertex="1" parent="MQ3nfaRgDuZ902bFgh4B-142">
          <mxGeometry x="37.5" y="32.91428571428571" width="15" height="13.714285714285715" as="geometry" />
        </mxCell>
        <mxCell id="MQ3nfaRgDuZ902bFgh4B-156" value="4" style="strokeWidth=1;shadow=0;dashed=0;align=center;html=1;shape=mxgraph.mockup.forms.rrect;rSize=0;strokeColor=#999999;fontColor=#999999;" vertex="1" parent="MQ3nfaRgDuZ902bFgh4B-142">
          <mxGeometry x="52.5" y="32.91428571428571" width="15" height="13.714285714285715" as="geometry" />
        </mxCell>
        <mxCell id="MQ3nfaRgDuZ902bFgh4B-157" value="5" style="strokeWidth=1;shadow=0;dashed=0;align=center;html=1;shape=mxgraph.mockup.forms.rrect;rSize=0;strokeColor=#999999;fontColor=#999999;" vertex="1" parent="MQ3nfaRgDuZ902bFgh4B-142">
          <mxGeometry x="67.5" y="32.91428571428571" width="15" height="13.714285714285715" as="geometry" />
        </mxCell>
        <mxCell id="MQ3nfaRgDuZ902bFgh4B-158" value="6" style="strokeWidth=1;shadow=0;dashed=0;align=center;html=1;shape=mxgraph.mockup.forms.rrect;rSize=0;strokeColor=#999999;fontColor=#999999;" vertex="1" parent="MQ3nfaRgDuZ902bFgh4B-142">
          <mxGeometry x="82.5" y="32.91428571428571" width="15" height="13.714285714285715" as="geometry" />
        </mxCell>
        <mxCell id="MQ3nfaRgDuZ902bFgh4B-159" value="7" style="strokeWidth=1;shadow=0;dashed=0;align=center;html=1;shape=mxgraph.mockup.forms.rrect;rSize=0;strokeColor=#999999;fontColor=#999999;" vertex="1" parent="MQ3nfaRgDuZ902bFgh4B-142">
          <mxGeometry x="97.5" y="32.91428571428571" width="15" height="13.714285714285715" as="geometry" />
        </mxCell>
        <mxCell id="MQ3nfaRgDuZ902bFgh4B-160" value="8" style="strokeWidth=1;shadow=0;dashed=0;align=center;html=1;shape=mxgraph.mockup.forms.rrect;rSize=0;strokeColor=#999999;fontColor=#999999;" vertex="1" parent="MQ3nfaRgDuZ902bFgh4B-142">
          <mxGeometry x="7.5" y="46.628571428571426" width="15" height="13.714285714285715" as="geometry" />
        </mxCell>
        <mxCell id="MQ3nfaRgDuZ902bFgh4B-161" value="9" style="strokeWidth=1;shadow=0;dashed=0;align=center;html=1;shape=mxgraph.mockup.forms.rrect;rSize=0;strokeColor=#999999;fontColor=#999999;" vertex="1" parent="MQ3nfaRgDuZ902bFgh4B-142">
          <mxGeometry x="22.5" y="46.628571428571426" width="15" height="13.714285714285715" as="geometry" />
        </mxCell>
        <mxCell id="MQ3nfaRgDuZ902bFgh4B-162" value="10" style="strokeWidth=1;shadow=0;dashed=0;align=center;html=1;shape=mxgraph.mockup.forms.rrect;rSize=0;strokeColor=#999999;fontColor=#999999;" vertex="1" parent="MQ3nfaRgDuZ902bFgh4B-142">
          <mxGeometry x="37.5" y="46.628571428571426" width="15" height="13.714285714285715" as="geometry" />
        </mxCell>
        <mxCell id="MQ3nfaRgDuZ902bFgh4B-163" value="11" style="strokeWidth=1;shadow=0;dashed=0;align=center;html=1;shape=mxgraph.mockup.forms.rrect;rSize=0;strokeColor=#999999;fontColor=#999999;" vertex="1" parent="MQ3nfaRgDuZ902bFgh4B-142">
          <mxGeometry x="52.5" y="46.628571428571426" width="15" height="13.714285714285715" as="geometry" />
        </mxCell>
        <mxCell id="MQ3nfaRgDuZ902bFgh4B-164" value="12" style="strokeWidth=1;shadow=0;dashed=0;align=center;html=1;shape=mxgraph.mockup.forms.rrect;rSize=0;strokeColor=#999999;fontColor=#999999;" vertex="1" parent="MQ3nfaRgDuZ902bFgh4B-142">
          <mxGeometry x="67.5" y="46.628571428571426" width="15" height="13.714285714285715" as="geometry" />
        </mxCell>
        <mxCell id="MQ3nfaRgDuZ902bFgh4B-165" value="13" style="strokeWidth=1;shadow=0;dashed=0;align=center;html=1;shape=mxgraph.mockup.forms.rrect;rSize=0;strokeColor=#999999;fontColor=#999999;" vertex="1" parent="MQ3nfaRgDuZ902bFgh4B-142">
          <mxGeometry x="82.5" y="46.628571428571426" width="15" height="13.714285714285715" as="geometry" />
        </mxCell>
        <mxCell id="MQ3nfaRgDuZ902bFgh4B-166" value="14" style="strokeWidth=1;shadow=0;dashed=0;align=center;html=1;shape=mxgraph.mockup.forms.rrect;rSize=0;strokeColor=#999999;fontColor=#999999;" vertex="1" parent="MQ3nfaRgDuZ902bFgh4B-142">
          <mxGeometry x="97.5" y="46.628571428571426" width="15" height="13.714285714285715" as="geometry" />
        </mxCell>
        <mxCell id="MQ3nfaRgDuZ902bFgh4B-167" value="15" style="strokeWidth=1;shadow=0;dashed=0;align=center;html=1;shape=mxgraph.mockup.forms.rrect;rSize=0;strokeColor=#999999;fontColor=#999999;" vertex="1" parent="MQ3nfaRgDuZ902bFgh4B-142">
          <mxGeometry x="7.5" y="60.34285714285714" width="15" height="13.714285714285715" as="geometry" />
        </mxCell>
        <mxCell id="MQ3nfaRgDuZ902bFgh4B-168" value="16" style="strokeWidth=1;shadow=0;dashed=0;align=center;html=1;shape=mxgraph.mockup.forms.rrect;rSize=0;strokeColor=#999999;fontColor=#999999;" vertex="1" parent="MQ3nfaRgDuZ902bFgh4B-142">
          <mxGeometry x="22.5" y="60.34285714285714" width="15" height="13.714285714285715" as="geometry" />
        </mxCell>
        <mxCell id="MQ3nfaRgDuZ902bFgh4B-169" value="17" style="strokeWidth=1;shadow=0;dashed=0;align=center;html=1;shape=mxgraph.mockup.forms.rrect;rSize=0;strokeColor=#999999;fontColor=#999999;" vertex="1" parent="MQ3nfaRgDuZ902bFgh4B-142">
          <mxGeometry x="37.5" y="60.34285714285714" width="15" height="13.714285714285715" as="geometry" />
        </mxCell>
        <mxCell id="MQ3nfaRgDuZ902bFgh4B-170" value="18" style="strokeWidth=1;shadow=0;dashed=0;align=center;html=1;shape=mxgraph.mockup.forms.rrect;rSize=0;strokeColor=#999999;fontColor=#999999;" vertex="1" parent="MQ3nfaRgDuZ902bFgh4B-142">
          <mxGeometry x="52.5" y="60.34285714285714" width="15" height="13.714285714285715" as="geometry" />
        </mxCell>
        <mxCell id="MQ3nfaRgDuZ902bFgh4B-171" value="19" style="strokeWidth=1;shadow=0;dashed=0;align=center;html=1;shape=mxgraph.mockup.forms.rrect;rSize=0;strokeColor=#999999;fontColor=#999999;" vertex="1" parent="MQ3nfaRgDuZ902bFgh4B-142">
          <mxGeometry x="67.5" y="60.34285714285714" width="15" height="13.714285714285715" as="geometry" />
        </mxCell>
        <mxCell id="MQ3nfaRgDuZ902bFgh4B-172" value="20" style="strokeWidth=1;shadow=0;dashed=0;align=center;html=1;shape=mxgraph.mockup.forms.rrect;rSize=0;strokeColor=#999999;fontColor=#999999;" vertex="1" parent="MQ3nfaRgDuZ902bFgh4B-142">
          <mxGeometry x="82.5" y="60.34285714285714" width="15" height="13.714285714285715" as="geometry" />
        </mxCell>
        <mxCell id="MQ3nfaRgDuZ902bFgh4B-173" value="21" style="strokeWidth=1;shadow=0;dashed=0;align=center;html=1;shape=mxgraph.mockup.forms.rrect;rSize=0;strokeColor=#999999;fontColor=#999999;" vertex="1" parent="MQ3nfaRgDuZ902bFgh4B-142">
          <mxGeometry x="97.5" y="60.34285714285714" width="15" height="13.714285714285715" as="geometry" />
        </mxCell>
        <mxCell id="MQ3nfaRgDuZ902bFgh4B-174" value="22" style="strokeWidth=1;shadow=0;dashed=0;align=center;html=1;shape=mxgraph.mockup.forms.rrect;rSize=0;strokeColor=#999999;fontColor=#999999;" vertex="1" parent="MQ3nfaRgDuZ902bFgh4B-142">
          <mxGeometry x="7.5" y="74.05714285714286" width="15" height="13.714285714285715" as="geometry" />
        </mxCell>
        <mxCell id="MQ3nfaRgDuZ902bFgh4B-175" value="23" style="strokeWidth=1;shadow=0;dashed=0;align=center;html=1;shape=mxgraph.mockup.forms.rrect;rSize=0;strokeColor=#999999;fontColor=#999999;" vertex="1" parent="MQ3nfaRgDuZ902bFgh4B-142">
          <mxGeometry x="22.5" y="74.05714285714286" width="15" height="13.714285714285715" as="geometry" />
        </mxCell>
        <mxCell id="MQ3nfaRgDuZ902bFgh4B-176" value="25" style="strokeWidth=1;shadow=0;dashed=0;align=center;html=1;shape=mxgraph.mockup.forms.rrect;rSize=0;strokeColor=#999999;fontColor=#999999;" vertex="1" parent="MQ3nfaRgDuZ902bFgh4B-142">
          <mxGeometry x="52.5" y="74.05714285714286" width="15" height="13.714285714285715" as="geometry" />
        </mxCell>
        <mxCell id="MQ3nfaRgDuZ902bFgh4B-177" value="26" style="strokeWidth=1;shadow=0;dashed=0;align=center;html=1;shape=mxgraph.mockup.forms.rrect;rSize=0;strokeColor=#999999;fontColor=#999999;" vertex="1" parent="MQ3nfaRgDuZ902bFgh4B-142">
          <mxGeometry x="67.5" y="74.05714285714286" width="15" height="13.714285714285715" as="geometry" />
        </mxCell>
        <mxCell id="MQ3nfaRgDuZ902bFgh4B-178" value="27" style="strokeWidth=1;shadow=0;dashed=0;align=center;html=1;shape=mxgraph.mockup.forms.rrect;rSize=0;strokeColor=#999999;fontColor=#999999;" vertex="1" parent="MQ3nfaRgDuZ902bFgh4B-142">
          <mxGeometry x="82.5" y="74.05714285714286" width="15" height="13.714285714285715" as="geometry" />
        </mxCell>
        <mxCell id="MQ3nfaRgDuZ902bFgh4B-179" value="28" style="strokeWidth=1;shadow=0;dashed=0;align=center;html=1;shape=mxgraph.mockup.forms.rrect;rSize=0;strokeColor=#999999;fontColor=#999999;" vertex="1" parent="MQ3nfaRgDuZ902bFgh4B-142">
          <mxGeometry x="97.5" y="74.05714285714286" width="15" height="13.714285714285715" as="geometry" />
        </mxCell>
        <mxCell id="MQ3nfaRgDuZ902bFgh4B-180" value="29" style="strokeWidth=1;shadow=0;dashed=0;align=center;html=1;shape=mxgraph.mockup.forms.rrect;rSize=0;strokeColor=#999999;fontColor=#999999;" vertex="1" parent="MQ3nfaRgDuZ902bFgh4B-142">
          <mxGeometry x="7.5" y="87.77142857142857" width="15" height="13.714285714285715" as="geometry" />
        </mxCell>
        <mxCell id="MQ3nfaRgDuZ902bFgh4B-181" value="30" style="strokeWidth=1;shadow=0;dashed=0;align=center;html=1;shape=mxgraph.mockup.forms.rrect;rSize=0;strokeColor=#999999;fontColor=#999999;" vertex="1" parent="MQ3nfaRgDuZ902bFgh4B-142">
          <mxGeometry x="22.5" y="87.77142857142857" width="15" height="13.714285714285715" as="geometry" />
        </mxCell>
        <mxCell id="MQ3nfaRgDuZ902bFgh4B-182" value="31" style="strokeWidth=1;shadow=0;dashed=0;align=center;html=1;shape=mxgraph.mockup.forms.rrect;rSize=0;strokeColor=#999999;fontColor=#999999;" vertex="1" parent="MQ3nfaRgDuZ902bFgh4B-142">
          <mxGeometry x="37.5" y="87.77142857142857" width="15" height="13.714285714285715" as="geometry" />
        </mxCell>
        <mxCell id="MQ3nfaRgDuZ902bFgh4B-183" value="1" style="strokeWidth=1;shadow=0;dashed=0;align=center;html=1;shape=mxgraph.mockup.forms.rrect;rSize=0;strokeColor=#999999;fontColor=#999999;fillColor=#ddeeff;" vertex="1" parent="MQ3nfaRgDuZ902bFgh4B-142">
          <mxGeometry x="52.5" y="87.77142857142857" width="15" height="13.714285714285715" as="geometry" />
        </mxCell>
        <mxCell id="MQ3nfaRgDuZ902bFgh4B-184" value="2" style="strokeWidth=1;shadow=0;dashed=0;align=center;html=1;shape=mxgraph.mockup.forms.rrect;rSize=0;strokeColor=#999999;fontColor=#999999;fillColor=#ddeeff;" vertex="1" parent="MQ3nfaRgDuZ902bFgh4B-142">
          <mxGeometry x="67.5" y="87.77142857142857" width="15" height="13.714285714285715" as="geometry" />
        </mxCell>
        <mxCell id="MQ3nfaRgDuZ902bFgh4B-185" value="3" style="strokeWidth=1;shadow=0;dashed=0;align=center;html=1;shape=mxgraph.mockup.forms.rrect;rSize=0;strokeColor=#999999;fontColor=#999999;fillColor=#ddeeff;" vertex="1" parent="MQ3nfaRgDuZ902bFgh4B-142">
          <mxGeometry x="82.5" y="87.77142857142857" width="15" height="13.714285714285715" as="geometry" />
        </mxCell>
        <mxCell id="MQ3nfaRgDuZ902bFgh4B-186" value="4" style="strokeWidth=1;shadow=0;dashed=0;align=center;html=1;shape=mxgraph.mockup.forms.rrect;rSize=0;strokeColor=#999999;fontColor=#999999;fillColor=#ddeeff;" vertex="1" parent="MQ3nfaRgDuZ902bFgh4B-142">
          <mxGeometry x="97.5" y="87.77142857142857" width="15" height="13.714285714285715" as="geometry" />
        </mxCell>
        <mxCell id="MQ3nfaRgDuZ902bFgh4B-187" value="5" style="strokeWidth=1;shadow=0;dashed=0;align=center;html=1;shape=mxgraph.mockup.forms.rrect;rSize=0;strokeColor=#999999;fontColor=#999999;fillColor=#ddeeff;" vertex="1" parent="MQ3nfaRgDuZ902bFgh4B-142">
          <mxGeometry x="7.5" y="101.48571428571428" width="15" height="13.714285714285715" as="geometry" />
        </mxCell>
        <mxCell id="MQ3nfaRgDuZ902bFgh4B-188" value="6" style="strokeWidth=1;shadow=0;dashed=0;align=center;html=1;shape=mxgraph.mockup.forms.rrect;rSize=0;strokeColor=#999999;fontColor=#999999;fillColor=#ddeeff;" vertex="1" parent="MQ3nfaRgDuZ902bFgh4B-142">
          <mxGeometry x="22.5" y="101.48571428571428" width="15" height="13.714285714285715" as="geometry" />
        </mxCell>
        <mxCell id="MQ3nfaRgDuZ902bFgh4B-189" value="7" style="strokeWidth=1;shadow=0;dashed=0;align=center;html=1;shape=mxgraph.mockup.forms.rrect;rSize=0;strokeColor=#999999;fontColor=#999999;fillColor=#ddeeff;" vertex="1" parent="MQ3nfaRgDuZ902bFgh4B-142">
          <mxGeometry x="37.5" y="101.48571428571428" width="15" height="13.714285714285715" as="geometry" />
        </mxCell>
        <mxCell id="MQ3nfaRgDuZ902bFgh4B-190" value="8" style="strokeWidth=1;shadow=0;dashed=0;align=center;html=1;shape=mxgraph.mockup.forms.rrect;rSize=0;strokeColor=#999999;fontColor=#999999;fillColor=#ddeeff;" vertex="1" parent="MQ3nfaRgDuZ902bFgh4B-142">
          <mxGeometry x="52.5" y="101.48571428571428" width="15" height="13.714285714285715" as="geometry" />
        </mxCell>
        <mxCell id="MQ3nfaRgDuZ902bFgh4B-191" value="9" style="strokeWidth=1;shadow=0;dashed=0;align=center;html=1;shape=mxgraph.mockup.forms.rrect;rSize=0;strokeColor=#999999;fontColor=#999999;fillColor=#ddeeff;" vertex="1" parent="MQ3nfaRgDuZ902bFgh4B-142">
          <mxGeometry x="67.5" y="101.48571428571428" width="15" height="13.714285714285715" as="geometry" />
        </mxCell>
        <mxCell id="MQ3nfaRgDuZ902bFgh4B-192" value="10" style="strokeWidth=1;shadow=0;dashed=0;align=center;html=1;shape=mxgraph.mockup.forms.rrect;rSize=0;strokeColor=#999999;fontColor=#999999;fillColor=#ddeeff;" vertex="1" parent="MQ3nfaRgDuZ902bFgh4B-142">
          <mxGeometry x="82.5" y="101.48571428571428" width="15" height="13.714285714285715" as="geometry" />
        </mxCell>
        <mxCell id="MQ3nfaRgDuZ902bFgh4B-193" value="11" style="strokeWidth=1;shadow=0;dashed=0;align=center;html=1;shape=mxgraph.mockup.forms.rrect;rSize=0;strokeColor=#999999;fontColor=#999999;fillColor=#ddeeff;" vertex="1" parent="MQ3nfaRgDuZ902bFgh4B-142">
          <mxGeometry x="97.5" y="101.48571428571428" width="15" height="13.714285714285715" as="geometry" />
        </mxCell>
        <mxCell id="MQ3nfaRgDuZ902bFgh4B-194" value="24" style="strokeWidth=1;shadow=0;dashed=0;align=center;html=1;shape=mxgraph.mockup.forms.rrect;rSize=0;strokeColor=#ff0000;fontColor=#ffffff;strokeWidth=2;fillColor=#008cff;" vertex="1" parent="MQ3nfaRgDuZ902bFgh4B-142">
          <mxGeometry x="37.5" y="74.05714285714286" width="15" height="13.714285714285715" as="geometry" />
        </mxCell>
        <mxCell id="MQ3nfaRgDuZ902bFgh4B-195" value="Leave" style="text;strokeColor=none;align=center;fillColor=none;html=1;verticalAlign=middle;whiteSpace=wrap;rounded=0;" vertex="1" parent="1">
          <mxGeometry x="315" y="250" width="65" height="30" as="geometry" />
        </mxCell>
      </root>
    </mxGraphModel>
  </diagram>
</mxfile>
